<svg width="69" height="69" viewBox="0 0 69 69" fill="none" xmlns="http://www.w3.org/2000/svg">
<path d="M37.1177 26.3526H52.6471L37.1177 10.8232V26.3526ZM17.353 6.58789H39.9412L56.8824 23.5291V57.4114C56.8824 58.9091 56.2874 60.3455 55.2284 61.4045C54.1694 62.4635 52.733 63.0585 51.2353 63.0585H17.353C15.8553 63.0585 14.4189 62.4635 13.3599 61.4045C12.3009 60.3455 11.7059 58.9091 11.7059 57.4114V12.235C11.7059 10.7373 12.3009 9.3009 13.3599 8.24188C14.4189 7.18285 15.8553 6.58789 17.353 6.58789ZM31.273 36.0655C32.4306 38.6067 33.8989 40.6961 35.593 42.1361L36.7506 43.0397C34.2942 43.4914 30.9059 44.282 27.32 45.6655L27.0095 45.7785L28.4212 42.842C29.6918 40.3855 30.6236 38.155 31.273 36.0655ZM49.5695 46.8232C50.0777 46.315 50.3318 45.6655 50.3601 44.9597C50.4448 44.395 50.3036 43.8585 50.0212 43.4067C49.2024 42.0797 47.0848 41.4585 43.5836 41.4585L39.9412 41.6561L37.4848 40.0185C35.7059 38.5502 34.0965 35.9808 32.9671 32.7902L33.08 32.395C34.0118 28.6397 34.8871 24.0938 33.0236 22.2302C32.7956 22.0089 32.526 21.835 32.2304 21.7187C31.9347 21.6024 31.6189 21.5459 31.3012 21.5526H30.6236C29.5789 21.5526 28.6471 22.6538 28.393 23.7267C27.3483 27.482 27.9695 29.5432 29.0142 32.9597V32.9879C28.3083 35.4726 27.4048 38.3526 25.9648 41.2608L23.2542 46.3432L20.7412 47.7267C17.353 49.8444 15.7436 52.2161 15.433 53.7126C15.3201 54.2491 15.3765 54.7291 15.5742 55.2373L15.6589 55.3785L17.0142 56.2538L18.2565 56.5644C20.5436 56.5644 23.1412 53.882 26.6424 47.8961L27.1506 47.6985C30.0589 46.7667 33.673 46.1173 38.5295 45.5808C41.4377 47.0208 44.8542 47.6702 47 47.6702C48.2424 47.6702 49.0895 47.3597 49.5695 46.8232ZM48.4118 44.8185L48.6659 45.1291C48.6377 45.4114 48.553 45.4397 48.4118 45.4961H48.2989L47.7624 45.5526C46.4636 45.5526 44.4589 45.0161 42.3977 44.1126C42.6518 43.8302 42.7648 43.8302 43.0471 43.8302C47 43.8302 48.1295 44.5361 48.4118 44.8185ZM22.52 48.9408C20.6848 52.3008 19.0189 54.1644 17.7483 54.5879C17.8895 53.515 19.16 51.6514 21.1648 49.8161L22.52 48.9408ZM31.0471 29.4302C30.3977 26.8891 30.3695 24.8279 30.8495 23.642L31.0471 23.3032L31.4706 23.4444C31.9506 24.122 32.0071 25.0255 31.7248 26.5502L31.6401 27.002L31.1883 29.3173L31.0471 29.4302Z" fill="#EF5350"/>
</svg>
